<?xml version="1.0" encoding="UTF-8"?>
<svg id="Layer_3" xmlns="http://www.w3.org/2000/svg" version="1.1" viewBox="0 0 1472.74 1846.23">
  <!-- Generator: Adobe Illustrator 29.3.1, SVG Export Plug-In . SVG Version: 2.1.0 Build 151)  -->
  <defs>
    <style>
      .st0 {
        fill: #e75a2d;
      }

      .st1 {
        fill: #383461;
      }

      .st2 {
        fill: #3999c2;
      }
    </style>
  </defs>
  <path class="st1" d="M855.52,174.59c-264.78,0-479.43,214.65-479.43,479.43s214.65,479.43,479.43,479.43,479.43-214.65,479.43-479.43-214.65-479.43-479.43-479.43ZM855.52,1048.46c-217.84,0-394.43-176.6-394.43-394.44s176.59-394.43,394.43-394.43,394.43,176.59,394.43,394.43-176.59,394.44-394.43,394.44Z"/>
  <path class="st1" d="M786.61,1128.53s37.44,25.4,190.59,25.4c127.31,0,362.24-72.88,458.81-324.03,41.15-107.02,47.29-224.14,20.57-335.65C1393.8,232.17,1178.94,0,855.52,0,467.18,0,204.23,347.72,204.23,612.12L16.4,899.64S0,922.43,0,950.04s22.74,73.85,68.98,73.85h96.32v254.85s-2.01,159.41,117.43,159.41h137.26l-7.96,325.08c-.51,20.95,7.1,41.46,21.76,56.43,9.62,9.82,22.79,18.06,40.3,19.27h227.32s32.43,7.3,58.11,7.3,64.86-8.67,117.51-42.06l-51.05-64.21s-33.07,23.12-58.11,23.12-84.76-21.19-84.76-95.68,73.52-74.81,79.3-74.81,43.34,2.25,61.97,21.83l49.12-68.71s-47.52-35-111.09-35-172.09,39.49-172.09,170.01c0,0,.48,45.75,13.97,69.35h-102.58l10.35-317.3s-6.26-82.35-63.57-82.35h-157s-39.97-11.56-39.97-52.98l4.76-290.54c.02-1.49.07-2.99.11-4.48.25-8.84-.82-61.85-62.18-61.85h-97.89l198.1-306.72s11.25-401.53,389.63-513.42c111.05-32.84,229.45-33.07,339.96,1.53,374.52,117.25,361.73,532.07,361.73,532.07,0,0-4.58,226.17-192.45,340.25-88.72,77.88-198.93,134.26-406.66,134.26Z"/>
  <rect class="st1" x="910.7" y="1524.74" width="92.47" height="315.69"/>
  <circle class="st1" cx="956.77" cy="1445.76" r="48.93"/>
  <path class="st1" d="M1221.02,1761.77c-47.2,0-58.28-26.33-58.28-26.33l204.68-130.03s-45.27-92.95-155.55-92.95-164.23,87.89-164.23,170.13,64.53,163.64,171.45,163.64c27.61,0,99.37-14.63,136.78-52.03l-48.49-70.31s-39.17,37.88-86.36,37.88ZM1209.89,1587.2c25.53,0,43.35,14.45,43.35,14.45l-118.24,79.07c0-69.5,49.37-93.52,74.89-93.52Z"/>
  <circle class="st0" cx="855.52" cy="618.52" r="68.67"/>
  <path class="st0" d="M1069.62,580.77c-5.45-30.91,10.69-60.63,37.59-73.69-7.98-18.03-17.86-35.04-29.36-50.78-24.76,16.74-58.55,15.85-82.58-4.32-24.05-20.18-30.79-53.32-18.58-80.61-17.42-8.56-35.88-15.33-55.13-20.07-8.18,28.76-34.66,49.82-66.04,49.82s-57.86-21.06-66.04-49.82c-19.25,4.74-37.71,11.51-55.13,20.07,12.21,27.29,5.47,60.43-18.58,80.61-24.03,20.17-57.82,21.06-82.58,4.32-11.5,15.74-21.38,32.75-29.36,50.78,26.9,13.06,43.04,42.78,37.59,73.69-5.45,30.89-30.75,53.3-60.47,56.39,1.32,19.92,4.78,39.26,10.13,57.79,29-7.3,60.47,5.09,76.16,32.28,15.68,27.16,10.7,60.58-10.08,82.05,19.84,20.62,42.85,38.15,68.25,51.8-2.34-5.23-3.65-11.03-3.65-17.13,0-11.57,4.69-22.04,12.27-29.63,7.59-7.58,18.06-12.27,29.63-12.27h188.57c23.14,0,41.9,18.76,41.9,41.9,0,4.79-.81,9.4-2.29,13.69,22.95-13.12,43.83-29.43,62.04-48.36-20.78-21.47-25.76-54.89-10.08-82.05,15.69-27.19,47.16-39.58,76.16-32.28,5.35-18.53,8.81-37.87,10.13-57.79-29.72-3.09-55.02-25.5-60.47-56.39ZM937.35,752.37h-163.26s-67.91-56.03-67.91-133.85,58.75-152.73,149.34-152.95h.4c90.59.22,149.34,75.24,149.34,152.95s-67.91,133.85-67.91,133.85Z"/>
  <path class="st2" d="M789.6,911.32c8.34,28.53,34.7,49.37,65.92,49.37s57.58-20.84,65.92-49.37h-131.84Z"/>
  <rect class="st2" x="748.3" y="829.74" width="219.28" height="56.11" rx="28.05" ry="28.05"/>
</svg>