<?xml version="1.0" encoding="UTF-8"?>
<svg id="Layer_3" xmlns="http://www.w3.org/2000/svg" version="1.1" viewBox="0 0 6066.07 1846.23">
  <!-- Generator: Adobe Illustrator 29.3.1, SVG Export Plug-In . SVG Version: 2.1.0 Build 151)  -->
  <defs>
    <style>
      .st0 {
        fill: #3a99c2;
      }

      .st1 {
        fill: #e75a2d;
      }

      .st2 {
        fill: #383461;
      }

      .st3 {
        fill: #3899c1;
      }

      .st4 {
        fill: #393562;
      }

      .st5 {
        fill: #e75a2c;
      }

      .st6 {
        fill: #3999c2;
      }

      .st7 {
        fill: #e75b2d;
      }

      .st8 {
        fill: #3999c1;
      }
    </style>
  </defs>
  <g>
    <path class="st2" d="M855.52,174.59c-264.78,0-479.43,214.65-479.43,479.43s214.65,479.43,479.43,479.43,479.43-214.65,479.43-479.43-214.65-479.43-479.43-479.43ZM855.52,1048.46c-217.84,0-394.43-176.6-394.43-394.44s176.59-394.43,394.43-394.43,394.43,176.59,394.43,394.43-176.59,394.44-394.43,394.44Z"/>
    <path class="st2" d="M786.61,1128.53s37.44,25.4,190.59,25.4c127.31,0,362.24-72.88,458.81-324.03,41.15-107.02,47.29-224.14,20.57-335.65C1393.8,232.17,1178.94,0,855.52,0,467.18,0,204.23,347.72,204.23,612.12L16.4,899.64S0,922.43,0,950.04s22.74,73.85,68.98,73.85h96.32v254.85s-2.01,159.41,117.43,159.41h137.26l-7.96,325.08c-.51,20.95,7.1,41.46,21.76,56.43,9.62,9.82,22.79,18.06,40.3,19.27h227.32s32.43,7.3,58.11,7.3,64.86-8.67,117.51-42.06l-51.05-64.21s-33.07,23.12-58.11,23.12-84.76-21.19-84.76-95.68,73.52-74.81,79.3-74.81,43.34,2.25,61.97,21.83l49.12-68.71s-47.52-35-111.09-35-172.09,39.49-172.09,170.01c0,0,.48,45.75,13.97,69.35h-102.58l10.35-317.3s-6.26-82.35-63.57-82.35h-157s-39.97-11.56-39.97-52.98l4.76-290.54c.02-1.49.07-2.99.11-4.48.25-8.84-.82-61.85-62.18-61.85h-97.89l198.1-306.72s11.25-401.53,389.63-513.42c111.05-32.84,229.45-33.07,339.96,1.53,374.52,117.25,361.73,532.07,361.73,532.07,0,0-4.58,226.17-192.45,340.25-88.72,77.88-198.93,134.26-406.66,134.26Z"/>
    <rect class="st2" x="910.7" y="1524.74" width="92.47" height="315.69"/>
    <circle class="st2" cx="956.77" cy="1445.76" r="48.93"/>
    <path class="st2" d="M1221.02,1761.77c-47.2,0-58.28-26.33-58.28-26.33l204.68-130.03s-45.27-92.95-155.55-92.95-164.23,87.89-164.23,170.13,64.53,163.64,171.45,163.64c27.61,0,99.37-14.63,136.78-52.03l-48.49-70.31s-39.17,37.88-86.36,37.88ZM1209.89,1587.2c25.53,0,43.35,14.45,43.35,14.45l-118.24,79.07c0-69.5,49.37-93.52,74.89-93.52Z"/>
    <circle class="st1" cx="855.52" cy="618.52" r="68.67"/>
    <path class="st1" d="M1069.62,580.77c-5.45-30.91,10.69-60.63,37.59-73.69-7.98-18.03-17.86-35.04-29.36-50.78-24.76,16.74-58.55,15.85-82.58-4.32-24.05-20.18-30.79-53.32-18.58-80.61-17.42-8.56-35.88-15.33-55.13-20.07-8.18,28.76-34.66,49.82-66.04,49.82s-57.86-21.06-66.04-49.82c-19.25,4.74-37.71,11.51-55.13,20.07,12.21,27.29,5.47,60.43-18.58,80.61-24.03,20.17-57.82,21.06-82.58,4.32-11.5,15.74-21.38,32.75-29.36,50.78,26.9,13.06,43.04,42.78,37.59,73.69-5.45,30.89-30.75,53.3-60.47,56.39,1.32,19.92,4.78,39.26,10.13,57.79,29-7.3,60.47,5.09,76.16,32.28,15.68,27.16,10.7,60.58-10.08,82.05,19.84,20.62,42.85,38.15,68.25,51.8-2.34-5.23-3.65-11.03-3.65-17.13,0-11.57,4.69-22.04,12.27-29.63,7.59-7.58,18.06-12.27,29.63-12.27h188.57c23.14,0,41.9,18.76,41.9,41.9,0,4.79-.81,9.4-2.29,13.69,22.95-13.12,43.83-29.43,62.04-48.36-20.78-21.47-25.76-54.89-10.08-82.05,15.69-27.19,47.16-39.58,76.16-32.28,5.35-18.53,8.81-37.87,10.13-57.79-29.72-3.09-55.02-25.5-60.47-56.39ZM937.35,752.37h-163.26s-67.91-56.03-67.91-133.85,58.75-152.73,149.34-152.95h.4c90.59.22,149.34,75.24,149.34,152.95s-67.91,133.85-67.91,133.85Z"/>
    <path class="st6" d="M789.6,911.32c8.34,28.53,34.7,49.37,65.92,49.37s57.58-20.84,65.92-49.37h-131.84Z"/>
    <rect class="st6" x="748.3" y="829.74" width="219.28" height="56.11" rx="28.05" ry="28.05"/>
  </g>
  <g>
    <path class="st8" d="M6066.07,1386c-12.8,15.31-29.88,18.83-48.67,18.75-86.67-.27-173.35-.34-260.03-.52-26.21,0-50.3-5.93-70.02-24.76-14.26-13.66-21.35-30.17-21.26-50.03.26-38.78.26-77.64.51-116.41.17-30.52,2.99-34.05,32.62-41.78,1.54-.43,2.9-1.72,5.55-3.44-4.02-3.01-7.18-5.32-10.16-7.74-16.83-13.49-27.24-30.18-26.9-52.7.33-25.11,0-50.22.42-75.31.6-36.62,16.91-54.25,53.54-57.34,14.86-1.29,29.89-1.72,44.83-1.81,48.58-.26,97.09.26,145.68-.34,11.45-.17,14.94,3.44,14.61,14.79-.69,21.41-.51,42.89.42,64.39.51,12.13-2.3,17.11-15.63,16.42-22.63-1.2-45.34-.42-68.05-.26-22.8.18-30.4,7.74-31,30.18-.62,22.29,10.28,33.44,32.71,33.44,14.09,0,28.18.43,42.19-.17,9.05-.34,12.21,3.18,11.61,12.03-.6,8.69.51,17.46-.51,25.96-1.62,13.5,2.56,18.48,16.91,17.88,29.46-1.2,59.01,0,88.46-.6,10.93-.26,15.8,2.49,14.94,14.36-.85,12.73.78,25.62-.42,38.26-.6,6.19-4.95,11.95-7.6,17.96-1.71-.26-3.33-.6-5.04-.86,13.15,23.13,26.48,46.25,39.54,69.47,7.09,12.55,13.66,25.44,20.49,38.17v21.93l.26.08ZM5922.01,1308.37c-11.27-19.77-21.44-37.83-31.77-55.71-14.34-24.88-35.78-36.97-64.3-36.29h-1.36c-8.97-1.02-11.87,3.36-11.7,12.04.42,17.28-.09,34.57,0,51.93.17,14.02,9.13,26.91,23.05,27.69,27.76,1.46,55.6.42,85.99.42l.09-.08Z"/>
    <path class="st3" d="M2720.85,1184.39c0-47.97-.09-95.86.09-143.83,0-8.6.68-17.37,2.13-25.89,4.02-23.3,21.6-37.57,50.13-39.71,20.32-1.46,40.82-1.81,61.23-1.98,54.06-.26,108.02-.26,162.08,0,29.89.17,57.3,8.17,75.15,33.79,7.34,10.57,12.89,25.02,12.89,37.66.34,100.41-.68,200.91-1.62,301.33-.34,36.89-16.82,54.25-54.06,56.41-27.16,1.63-54.39,1.97-81.63,1.97-51.75,0-103.49.78-155.16-1.8-44.83-2.23-71.65-33.61-71.65-78.24,0-23.3.09-46.59.09-69.89v-69.9h.34v.09ZM2934.93,1189.81h.51c0-30.94.26-61.98-.09-92.93-.17-17.71-14.77-29.06-35.78-28.98-18.96,0-29.29,9.2-29.46,27.78-.43,60.61-.52,121.22-.26,181.83,0,20.46,14,31.81,37.48,31.81,18.88,0,27.41-9.2,27.59-30.61.17-29.66,0-59.23,0-88.9Z"/>
    <path class="st3" d="M4993,1196.52c0,49.26.26,98.61,0,147.87-.26,37.57-16.74,56.83-54.22,57.6-78.48,1.55-156.96,2.07-235.43.43-45.6-.94-73.36-33.53-73.36-79.62.09-91.3.26-182.69.43-274,0-6.88-.18-13.75.33-20.54,2.9-33.28,17.33-51.85,49.53-52.71,81.13-2.06,162.42-3.09,243.54-.51,45.52,1.46,70.88,34.3,70.8,80.3v141.08h-1.62v.09ZM4844.75,1189.3h.69c0-30.18.26-60.27,0-90.44-.18-19.69-14.35-31.38-36.72-31.03-19.47.26-28.6,9.63-28.69,30-.17,58.9-.26,117.87-.26,176.76,0,23.22,12.73,34.82,37.4,34.73,19.72,0,27.41-9.11,27.58-33.61.18-28.81,0-57.52,0-86.32v-.09Z"/>
    <path class="st8" d="M2640.57,1215.6c0,57.94-.26,115.97.17,173.93,0,11-2.73,15.22-14.43,15.04-40.39-.6-80.78-.51-121.17,0-10.68.09-14.86-2.06-14.69-14.44,1.02-95.43,1.28-190.87,1.62-286.21.08-24.59-11.1-35.59-35.87-35.93-18.91-.23-28.42,8.97-28.52,27.6-.6,97.67-1.46,195.33-1.62,293.08,0,11.87-3.33,16.08-15.29,15.99-40.39-.52-80.79-.52-121.17,0-11.1.17-13.66-3.96-13.66-14.45.59-106.35.68-212.7,1.1-319.13.09-28.71,1.28-57.42,1.46-86.23,0-8.85,2.98-12.03,11.87-12.03,89.83.26,179.75,0,269.59.34,23.4.09,44.4,8.34,61.56,25.02,13.33,12.98,20.25,28.54,20.16,47.55-.26,56.56-.09,113.23-.09,169.79h-.93l-.09.09Z"/>
    <path class="st8" d="M1835.31,1188.69c0-67.15.26-134.29-.26-201.44-.09-11.52,3.5-14.7,14.69-14.62,87.62.43,175.23.17,262.84.26,27.07,0,50.9,8.34,69.43,28.97,11.01,12.29,17.33,26.65,17.24,43.5-.68,115.55-1.54,231.09-1.96,346.55,0,9.89-3.85,12.47-12.98,12.38-40.82-.34-81.72-.6-122.63.09-11.87.17-14.34-4.3-14.17-15.14.93-94.48,1.45-189.05,1.96-283.53.18-26.74-11.09-38-38.08-37.91-31.17.08-26.56-3.7-26.81,26.82-.51,72.13-.6,144.35-1.02,216.48-.18,26.91-1.29,53.82-1.11,80.82,0,9.8-3.76,12.55-12.89,12.47-40.39-.34-80.79-.52-121.26.08-11.96.18-15.72-3.87-15.63-15.82.42-66.62.26-133.35.26-199.97h2.39Z"/>
    <path class="st6" d="M5074.14,1188.35c0-67.15.17-134.2-.18-201.35,0-10.4,2.48-14.36,13.67-14.36,88.55.43,177.02.09,265.57.34,25.02,0,47.22,8.26,65.16,26.4,12.04,12.12,18.87,26.65,18.87,44.1-.42,116.49-.93,232.9-1.19,349.39,0,9.2-3.59,11.69-12.13,11.61-41.33-.34-82.67-.43-123.91,0-11.27.17-13.58-4.39-13.49-14.7.6-93.62.86-187.25,1.2-280.88.08-30.95-9.91-41.27-40.39-41.09-27.16.17-23.74-3.87-23.92,23.9-.77,99.05-1.61,198.17-1.79,297.21,0,12.03-3.33,15.73-15.36,15.56-39.97-.69-79.93-.61-119.81,0-11.1.17-14.94-3.1-14.85-14.79.51-67.15.26-134.29.26-201.44h2.64l-.33.09Z"/>
    <path class="st8" d="M3805.3,1133.93c-18.44,58.98-36.12,115.37-54.05,172.8,4.27,1.03,7.09,2.32,9.99,2.4,23.57.18,47.22,0,70.79.27,8.38.08,11.36-2.84,10.17-11.44-9.91-69.56-19.39-139.1-29.29-208.57-1.97-13.84-12.47-21.41-28.69-21.5-39.97-.08-79.93-.51-119.81.26-12.29.27-15.54-4.04-15.36-15.82.33-22.35-.34-44.7-1.46-67.06-.51-10.31,4.02-12.55,12.81-12.47,32.19.17,64.47.09,96.66.09h110.32c52.26,0,78.82,23.98,86.85,76.09,16.73,108.58,34.75,216.99,51.06,325.66,4.78,31.9,11.78,29.58-24,29.58h-413.99c-17.85,0-18.11-.86-11.7-17.62,30.57-80.05,61.05-160.09,91.03-240.38,4.02-10.66,9.39-14.79,20.92-14.62,39.97.69,79.93.17,119.81.34,5.21,0,10.5,1.03,17.93,1.89v.09Z"/>
    <path class="st6" d="M3095.06,973.93c6.15-.43,10.08-.95,13.93-.95,38.17,0,76.25.34,114.42-.26,10.26-.17,15.37,3.53,19.73,12.55,30.91,65,62.33,129.73,93.59,194.56,1.87,3.87,4.09,7.57,9.3,10.92,5.13-25.62,10.25-51.24,15.29-76.86,7.01-35.76,13.92-71.61,21.01-107.37,3.58-18.06,16.22-26.74,32.79-30.7,7.01-1.71,14.35-2.58,21.6-2.58,41.33-.26,82.67,0,123.91-.34,9.31,0,12.98,2.84,12.64,12.56-.68,23.3-.77,46.59-.42,69.89.17,9.37-2.99,12.64-12.56,12.89-35.18.87-42.95,7.14-53.45,42.13-28.18,93.8-56.36,187.69-84.28,281.65-2.74,9.37-7.09,13.15-17.25,12.81-21.77-.77-43.63.43-65.32-.69-5.89-.33-14.01-4.81-16.73-9.79-60.03-109.36-119.38-219.15-178.9-328.77-13.67-25.19-27.5-50.37-41.25-75.56-2.48-4.65-4.69-9.38-7.94-15.83l-.09-.25Z"/>
    <path class="st0" d="M4192.53,972.9c54.48,0,108.88.34,163.36-.26,12.04-.17,15.8,3.36,15.2,15.47-1.02,22.35-.6,44.7-.26,67.07.18,9.37-3.16,12.98-12.73,12.81-24-.43-48.07.34-72.16-.43-11.18-.34-13.66,3.7-13.66,14.27-.34,101.79-1.45,203.5-1.54,305.29,0,14.18-4.36,17.8-17.84,17.45-39.03-.86-78.05-.77-117.08,0-12.3.26-15.21-3.87-15.21-15.73.69-95.34.69-190.69.94-286.12v-4.12c.51-20.58-9.31-30.87-29.46-30.87-21.78,0-43.55-.52-65.33.17-11.01.34-15.36-2.75-14.94-14.53.94-22.35,1.02-44.7.26-67.06-.33-11.18,3.76-13.84,14.17-13.84,55.34.43,110.68.17,166.09.17l.18.26Z"/>
    <path class="st2" d="M4195.28,700.11c28.52,16.51,28.6,41.61,27.58,67.32-.6,15.48-.42,31.04-.17,46.6.08,7.39-2.48,10.66-10.33,10.57-27.24-.34-54.48-.43-81.72,0-9.06.17-10.41-4.21-10.41-11.69,0-28.71-.34-57.52-.6-86.23-.18-20.2-8.71-29.06-29.12-29.06-24.68,0-22.88-3.96-22.88,22.09,0,30.61-.6,61.21-.34,91.73.09,10.14-3.33,13.5-13.48,13.24-27.24-.6-54.49-.43-81.72,0-8.63.17-12.05-2.24-11.96-11.52.94-95.86,1.62-191.72,2.05-287.58,0-8.34,2.74-11.09,11.01-11.09,63.53.26,127.07-.26,190.6.43,38.43.43,59.86,23.64,59.78,62.33v86.32c0,25.28-1.88,27.86-28.44,36.62l.18-.09ZM4095.46,633.39c29.79-.26,25.87,3.61,25.1-24.67-.51-18.57-9.48-27.25-28.09-27.34-29.2,0-24.85-3.01-24.34,24.33.69,32.58-4.02,27.08,27.33,27.6v.09Z"/>
    <path class="st5" d="M2651.66,1729.89c0,.43-.17,1.2,0,1.38,22.81,17.88,25.02,42.47,22.89,68.95-1.11,14.53-.51,29.23-.18,43.85.18,8.17-2.65,11.35-11.01,11.18-26.3-.43-52.69-.52-78.99,0-9.91.26-12.64-3.96-12.64-12.9,0-28.28-.26-56.65-.43-84.94-.17-20.72-8.2-28.97-28.6-29.4-2.74,0-5.46.26-8.2,0-11.7-1.63-15.97,2.75-15.71,15.05.68,31.98-.43,63.96,0,95.86.17,11.86-2.22,17.11-15.63,16.51-26.3-1.2-52.61-.69-79-.17-9.13.17-11.69-3.1-11.69-11.87.6-95.43,1.11-190.86,1.11-286.29,0-10.06,3.93-12.2,12.97-12.13,62.69.27,125.28-.17,187.95.34,39.37.26,61.23,23.13,61.14,62.33v84.94c0,26.49-1.1,28.2-24.07,37.4l.08-.09ZM2546.38,1663.27c30.57-.52,27.5,4.89,26.3-24.6-.77-18.56-9.73-26.99-28.52-27.08-28-.09-24.51-3.01-24.33,24.59.26,31.3-2.9,26.74,26.56,27v.09Z"/>
    <path class="st2" d="M2926.83,699.59c3.67,3.35,7,6.19,10.16,9.28,9.82,9.63,15.63,20.98,15.54,35.16-.08,22.35-.17,44.71.43,67.06.26,9.72-2.39,13.84-12.98,13.67-29.38-.6-58.75-.26-90.18-.26v-60.18c0-13.67,0-27.43-.17-41.1-.26-14.7-8.45-23.81-22.89-25.62-28.51-3.61-29.46-2.75-29.63,26.48-.09,28.72-.51,57.52-.17,86.23.17,10.14-1.88,14.79-13.42,14.44-27.16-.86-54.48-.6-81.63-.09-8.97.17-11.87-2.92-11.78-11.86.86-95.86,1.45-191.63,1.79-287.49,0-8.6,3.25-10.83,11.36-10.83,63.53.26,127.07-.34,190.51.43,38.6.43,59.86,23.47,59.86,62.16v84.86c0,27.17-1.28,28.97-26.73,37.57l-.08.09ZM2822.9,633.39c18.96,0,28.12-7.88,27.5-23.64-.94-22.87-9.99-29.14-40.65-28.46-22.04.52-7.85,17.54-11.87,26.22-.17.34,0,.86,0,1.38.42,27.17-3.42,24.33,25.02,24.5Z"/>
    <path class="st2" d="M3904.59,673.28c0,34.65.17,69.38,0,104.03-.26,31.98-10.85,45.14-42.7,46-54.82,1.55-109.73,1.46-164.56.43-27.16-.52-55.76-21.58-54.73-59.06,1.87-66.11.85-132.31,1.02-198.43.17-37.91,10.67-50.21,47.74-50.98,52.09-1.12,104.35-1.2,156.44-.26,37.58.69,57.89,23.56,57.81,61.04-.09,32.41,0,64.74,0,97.15h-.94l-.08.09ZM3750.79,668.3h-.17c0,21.41-.26,42.81.08,64.22.26,14.96,9.74,23.3,25.71,23.64,14.43.26,20.92-5.93,21.09-22.1.51-42.81.68-85.72.51-128.53,0-14.27-11.19-23.38-26.39-23.04-14.08.34-20.67,7.31-20.75,22.87-.26,20.98,0,41.95,0,62.93h-.09Z"/>
    <path class="st5" d="M3520.66,1730.33c3.58,3.35,7.77,5.76,9.73,9.45,5.63,11.01,13.66,22.1,14.85,33.79,2.31,23.04.34,46.52.69,69.72.17,8.86-2.9,12.04-11.79,11.87-26.3-.43-52.6-.6-78.9,0-9.91.26-12.3-3.61-12.21-12.81.34-29.23,0-58.46-.17-87.61-.09-16.51-9.4-25.88-25.96-26.82-17.53-.97-26.33,7.17-26.39,24.42-.08,29.66-.68,59.32-.08,88.98.17,10.93-3.42,14.1-14.09,13.76-26.3-.69-52.6-.6-78.91,0-9.81.26-13.66-2.41-13.57-12.89.77-94.92,1.19-189.83,1.37-284.83,0-9.46,2.98-12.64,12.46-12.64,62.6.34,125.2-.09,187.87.34,39.96.26,61.65,23.04,61.65,63.37v83.47c0,26.91-1.71,29.32-26.39,38.17l-.17.27ZM3417.5,1664.13c29.55,0,30.66-1.38,26.04-30.87-1.7-11.18-8.37-18.14-18.96-20.9-26.64-6.96-33.99-1.37-33.64,25.62.42,27.94-4.53,26.05,26.47,26.05l.09.09Z"/>
    <path class="st5" d="M4955.19,1730.24c26.13,15.31,29.71,37.82,28.27,62.93-.94,16.42-.6,32.83-.26,49.26.17,9.11-2.74,12.98-12.56,12.73-25.88-.61-51.74-.61-77.62,0-9.48.17-12.73-2.84-12.64-12.47.42-28.29,0-56.65-.18-84.94-.17-20.9-8.88-29.67-29.97-29.74-26.04-.09-22.12-2.07-22.46,22.7-.33,30.09-.94,60.27-.68,90.35.09,10.4-2.56,14.53-13.75,14.1-25.36-.87-50.9-.94-76.26,0-12.97.51-17.08-3.1-16.91-16.59,1.29-85.81,1.71-171.69,2.39-257.49q.26-36.11,36.38-36.11c53.54,0,107.17.09,160.72,0,16.91,0,32.45,3.61,45.68,14.62,11.79,9.8,18.62,22.1,18.53,37.91-.09,32.41,0,64.82,0,97.23,0,24.76-2.39,27.94-28.78,35.51h.09ZM4854.86,1664.13c17.98,0,26.58-8.8,25.79-26.4-.77-16.85-9.48-25.96-26.3-26.05-30.4-.17-26.64-3.35-26.48,25.2.09,29.06-2.9,27.17,26.99,27.17v.09Z"/>
    <path class="st1" d="M5573.19,1699.97c0,47.03-.17,94.05.18,141.08,0,10.15-2.14,14.7-13.58,14.27-26.72-.86-53.54-.86-80.35,0-11.96.34-14.61-4.3-14.35-15.22.94-32.84.78-65.77,1.62-98.61.26-9.8-2.56-13.67-12.98-13.75-33.81-.18-33.81-.61-33.9,33.52-.09,27.43-.51,54.76-.26,82.19,0,8.85-2.9,11.95-11.87,11.77-28.09-.42-56.27-.42-84.45,0-8.89.18-11.96-2.66-11.87-11.69.59-95.86,1.02-191.8,1.28-287.66,0-8.51,3.42-11.01,11.44-10.93,28.61.34,57.21.34,85.83,0,8.37-.09,11.01,2.83,10.93,11.18-.42,29.66,0,59.32-.59,89.06-.27,10.75,2.13,15.47,14.17,15.31,32.79-.43,32.87.09,32.96-33.36,0-22.87.51-45.66,0-68.52-.18-9.63,2.05-14.02,12.72-13.76,27.67.69,55.33.52,83.09,0,9.48-.17,12.56,2.92,12.47,12.64-.43,47.46-.17,95.01-.17,142.46h-2.31Z"/>
    <path class="st5" d="M3844.4,1700.32c0-46.59.33-93.19-.26-139.7-.18-11.6,2.56-15.91,15.03-15.82,61.31.6,122.54.43,183.85.26,17,0,32.36,3.96,45.34,15.31,11.1,9.71,18.02,21.5,17.93,36.88-.51,81.25-1.19,162.58-1.19,243.82,0,11.87-4.1,14.54-15.03,14.27-26.31-.69-52.69-.69-79,0-10.5.27-14.08-2.49-13.92-13.75.86-65.77.86-131.54,1.2-197.31.08-24.93-16.32-37.91-40.05-30.69-2.99.94-6.15,7.3-6.24,11.26-.68,26.91-.51,53.91-.68,80.82-.18,45.22-.69,90.44-.43,135.67,0,10.48-2.65,14.35-13.74,14.01-26.31-.86-52.7-.86-79,0-11.78.34-15.71-2.75-15.54-15.22.69-46.59.26-93.11.26-139.7h1.37l.09-.09Z"/>
    <path class="st2" d="M2125.44,824.51c-.34-5.59-.86-10.06-.77-14.44.51-94.05,1.28-188.11,1.45-282.16,0-9.97,2.56-13.58,12.98-13.5,62.17.43,124.42.26,186.58.26,22.72,0,42.35,7.48,54.57,27.51,4.69,7.74,7.34,17.97,7.34,27.08.09,80.81-.68,161.63-.86,242.44,0,10.4-3.67,13.15-13.57,12.98-26.3-.6-52.69-1.03-78.99.17-13.58.6-15.55-4.64-15.37-16.51.86-64.39.93-128.79,1.19-193.18.09-26.57-14.68-38.77-39.96-32.07-3.07.77-6.15,8-6.23,12.29-.69,36.54-.78,73.08-.94,109.62-.17,35.16-.68,70.33-.34,105.49.09,10.32-2.13,14.62-13.57,14.36-30.74-.77-61.56-.26-93.59-.26l.09-.09Z"/>
    <path class="st5" d="M1848.58,1700.5c0-47.03.33-94.05-.26-141.08-.18-11.35,3.07-14.79,14.52-14.7,61.22.52,122.54.34,183.76.18,16.49,0,31.43,3.87,44.41,14.35,11.96,9.64,18.87,21.93,18.79,37.75-.34,81.76-.69,163.43-.69,245.2,0,10.49-3.84,13.15-13.66,12.98-27.23-.52-54.48-.6-81.72,0-10.41.26-13.06-3.44-12.98-13.42.69-65.77.78-131.45,1.03-197.22.08-25.62-15.37-38.17-39.46-31.03-3.07.94-5.97,8.17-6.06,12.55-.94,52.02-1.37,104.04-1.88,156.13-.17,20.12-.51,40.15-.17,60.27.17,9.11-2.14,12.98-12.21,12.81-27.67-.69-55.33-.52-83.08,0-9.14.17-12.98-2.32-12.9-12.21.43-47.45.18-94.91.18-142.45h2.05l.34-.09Z"/>
    <path class="st5" d="M4665.1,1684.76c0,40.67.17,81.33,0,122-.17,32.41-11.27,46.34-43.38,47.28-54.91,1.63-109.9,1.8-164.81.26-33.73-.94-54.57-25.88-54.31-59.67.51-79.01,1.37-158.01,1.62-237.03,0-9.46,2.65-12.81,12.29-12.64,26.81.6,53.63.69,80.35,0,11.79-.34,15.8,2.92,15.54,15.31-1.02,65.77-1.37,131.54-1.7,197.31-.09,19.34,8.02,28.37,25.02,28.88,15.2.43,21.35-5.85,21.52-22.95.34-52.1.43-104.11.77-156.21.09-16.94,1.02-33.79.6-50.64-.26-9.37,3.42-11.69,12.04-11.6,27.24.34,54.49.6,81.72,0,10.68-.26,14.09,2.75,13.92,13.84-.68,42.05-.26,84.08-.26,126.04h-.85l-.09-.18Z"/>
    <path class="st6" d="M1608.29,1188.26c0-67.06.18-134.2-.17-201.26,0-10.58,2.82-14.45,13.75-14.27,41.33.52,82.57.43,123.91,0,9.48-.09,12.64,3,12.46,12.64-.85,44.27-1.37,88.46-1.62,132.74-.51,89.84-1.1,179.77-.94,269.62,0,13.24-3.67,17.11-16.82,16.85-39.45-.86-78.99-.69-118.44,0-11.61.18-14.6-3.78-14.52-14.96.43-67.06.26-134.2.26-201.35h2.31-.18Z"/>
    <path class="st8" d="M4551.01,1188.52c0,67.07-.17,134.21.18,201.27,0,10.57-2.9,14.78-13.75,14.7-41.25-.34-82.58-.34-123.82,0-9.31,0-12.73-2.92-12.64-12.65.59-100.41.68-200.74,1.28-301.16.17-35.08,1.36-70.24,1.45-105.31,0-9.55,3.16-12.73,12.64-12.64,41.25.34,82.58.43,123.82,0,10.17-.09,13.24,3.09,13.16,13.24-.43,67.49-.18,135.07-.18,202.55h-2.14Z"/>
    <path class="st5" d="M5794.85,1698.34c0-46.59.34-93.11-.26-139.7-.08-10.92,3.34-13.93,14.01-13.84,61.23.42,122.54.34,183.77.17,18.96,0,37.15,3.79,49.18,18.83,7.43,9.29,13.84,22.26,14.43,33.88,1.8,37.82.94,75.74.52,113.65-.34,27.78-10.08,37.91-38,38.6-33.99.78-68.06.78-102.05.09-11.53-.18-14.86,3.7-14.61,14.87.51,25.11-.59,50.21-.08,75.31.17,11-2.82,15.38-14.61,15.04-25.88-.86-51.75-.94-77.54,0-12.47.43-16.31-3.09-16.14-15.91.69-47.03.26-94.05.26-140.99h1.29-.18ZM5949.07,1654.76c-.42-36.55-6.41-43.08-36.29-42.13-8.71.26-10.85,3.78-10.59,11.6.42,12.73.09,25.44.09,38.17s6.62,19.69,19.89,19.69c18.16,0,27.13-9.11,26.9-27.33Z"/>
    <path class="st5" d="M2973.69,1699.55c0-46.6.26-93.11-.17-139.71-.09-10.83,2.14-15.22,14.08-15.04,61.23.6,122.54.42,183.86.26,16.91,0,32.45,3.87,45.6,14.87,11.27,9.46,18.01,21.32,18.01,36.71-.17,38.35.18,76.68-.17,115.03-.26,27.6-9.05,37.22-36.8,38-33.56.94-67.2,1.12-100.77.18-14.26-.43-17.77,4.38-17.25,17.96.94,24.59-.33,49.26,0,73.94.18,9.97-2.82,13.67-13.15,13.42-26.72-.69-53.53-.69-80.35,0-11.27.34-14.94-3.18-14.77-14.62.51-47.03.26-94.05.26-141.08h1.71l-.09.09ZM3128.34,1654.84c-.33-35.07-8.88-44.44-37.91-42.81-7.69.43-10.33,3.36-10.07,10.84.33,12.73.08,25.45.08,38.17,0,24.07-1.62,21.15,21,21.15,18.17,0,27.14-9.11,26.9-27.34Z"/>
    <path class="st7" d="M5128.42,1854.98c-26.3,0-52.69-.6-78.99.26-11.27.34-14.26-3.6-13.66-14.18.77-14.09.77-28.29.26-42.47-.34-9.54,3.07-12.64,12.55-12.55,31.77.43,63.53.51,95.31-.09,10.76-.17,24,2.23,28.18-12.89,5.63-20.81,0-39.46-15.97-46.08-22.19-9.2-45.17-16.25-67.97-23.9-52.94-17.72-59.94-27.43-59.94-83.92,0-13.24-.18-26.48,0-39.71.33-17.97,8.37-28.29,25.79-31.72,9.3-1.81,18.87-2.5,28.44-2.58,41.33-.27,82.58.17,123.91-.43,11.27-.17,14.17,4.05,13.57,14.44-.85,14.1-1.28,28.29-.85,42.39.26,9.28-3.5,11.69-12.05,11.52-22.21-.42-44.49-.17-66.69,0-7.85,0-16.14.18-17.76,10.49-1.55,9.71-.26,18.74,10.41,22.52,16.23,5.68,32.87,10.49,49.02,16.25,17.93,6.37,36.12,12.38,53.2,20.64,21.35,10.4,31.94,29.06,32.63,52.95.59,22.35.93,44.71.93,67.07,0,31.81-9.73,45.05-41.16,48.4-32.87,3.44-66,3.44-99.05,4.9v-1.37l-.09.08Z"/>
    <path class="st7" d="M4162.9,1699.88c0-47.03.34-94.05-.26-141.08-.09-10.83,3.16-14.09,13.92-14.01,53.12.51,106.23.42,159.26,0,9.73,0,14.08,2.06,13.41,12.81-.94,14.53-.77,29.23-.26,43.85.34,9.11-3.25,11.95-11.96,11.69-18.1-.51-36.29.26-54.48-.34-9.73-.34-12.38,3.52-12.47,12.81-.42,34.38-.68,34.38,32.96,34.38,12.21,0,24.6-.6,36.72.34,3.16.27,8.29,5.33,8.45,8.43.77,16.43,0,32.84.34,49.27.17,8.08-3.5,10.14-10.77,9.97-18.61-.34-37.22.34-55.85-.34-9.73-.34-12.81,3.27-12.38,12.73.51,11.86.26,23.72-.26,35.59-.33,7.82,2.82,10.57,10.33,10.4,19.05-.26,38.09.17,57.21-.26,8.11-.18,11.53,2.66,11.27,11.08-.42,15.48-.42,31.04-.26,46.6,0,7.82-2.65,11.35-11.18,11.35-54.91-.27-109.82-.34-164.72,0-10.17,0-10.68-5.25-10.68-12.9.17-47.45,0-94.91,0-142.45h1.37l.26.08Z"/>
    <path class="st4" d="M1885.01,670.1c0-47.46.27-94.91-.17-142.46-.09-10.14,2.99-13.41,13.24-13.33,53.54.43,107.09.43,160.62,0,10.42-.09,13.42,3.35,12.81,13.41-.86,14.53-.69,29.23-.34,43.85.26,8.43-2.9,11.26-11.1,11.09-18.61-.43-37.22.17-55.85-.26-8.45-.17-12.04,2.15-12.29,11.52-.94,35.76-1.28,35.68,34.24,35.68,10.93,0,21.77.34,32.71-.09,8.45-.43,12.55,1.81,12.13,11.35-.69,15.48-.6,31.04-.26,46.51.17,7.82-2.99,10.4-10.5,10.32-18.62-.34-37.23.26-55.85-.34-9.14-.26-13.42,2.24-12.9,12.21.6,11.86.43,23.73-.17,35.59-.42,8.51,2.81,11.26,11.01,11.09,18.62-.43,37.23.17,55.85-.26,8.71-.26,12.47,2.49,12.05,11.69-.6,15.47-.51,31.04-.43,46.6,0,7.39-2.73,10.49-10.5,10.49-55.33-.26-110.76-.26-166.09,0-10.67,0-9.9-6.28-9.9-13.5.09-47.03,0-94.05,0-141.08h1.54l.17-.09Z"/>
    <path class="st4" d="M3010.37,669.93c0-47.03.26-94.05-.18-141.17-.08-10.23,1.88-14.62,13.41-14.44,53.54.6,107.18.43,160.72,0,9.56,0,12.81,2.84,12.29,12.47-.77,14.1-.86,28.37-.26,42.47.42,9.97-2.39,13.93-12.89,13.41-17.68-.77-35.44.17-53.12-.43-9.3-.26-12.72,2.58-12.81,12.38-.34,34.91-.68,34.91,33.82,34.91,11.36,0,22.72.34,34.06-.17,8.54-.43,11.02,3.18,10.77,11.35-.51,15.48-.51,31.04-.18,46.6.18,7.74-2.65,10.49-10.32,10.32-19.05-.34-38.18.17-57.21-.34-8.12-.17-11.61,2.49-11.45,10.92.34,12.29.34,24.68-.34,36.97-.51,8.68,3.25,11.09,11.19,10.92,18.61-.34,37.23.26,55.85-.34,8.88-.26,12.13,2.75,11.7,11.78-.69,15.48-.51,31.04-.26,46.6.08,7.48-2.65,10.4-10.42,10.4-54.91-.26-109.9-.43-164.81,0-10.93.09-11.27-5.5-11.18-13.67.26-47.03.08-94.05.08-141.17h1.46l.09.26Z"/>
    <path class="st7" d="M1607.1,1700.23c0-46.59.34-93.1-.26-139.7-.17-11.52,2.3-15.98,14.94-15.82,52.61.69,105.3.6,157.98.09,10.59-.09,14.77,2.58,13.92,13.84-1.02,13.15-1.02,26.48-.26,39.72.6,11.08-2.65,15.56-14.35,14.95-17.68-.94-35.43,0-53.11-.34-8.11-.17-11.01,2.84-11.36,11.09-1.54,36.11-1.7,36.11,34.07,36.11,11.36,0,22.72.26,34.06-.09,7.61-.26,10.59,2.67,10.42,10.4-.42,15.99-.51,31.99-.17,47.97.17,8.26-3.76,9.97-10.85,9.8-18.62-.34-37.23.26-55.85-.26-8.8-.26-12.38,2.58-11.96,11.6.51,11.86.42,23.73-.26,35.59-.6,9.46,3.58,11.69,12.04,11.53,18.19-.43,36.3.17,54.49-.34,8.97-.26,12.2,3.09,12.04,11.95-.42,15.05-.42,30.18-.17,45.22.17,8.69-2.99,11.96-12.05,11.87-54.06-.34-108.02-.43-162.08,0-11.1.09-12.55-4.65-12.47-13.93.34-47.03.18-94.05.18-141.08h1.19l-.17-.18Z"/>
    <path class="st7" d="M2732.31,1699.72c0-47.03.34-94.05-.26-140.99-.18-11.09,3.67-13.93,14.17-13.84,53.12.42,106.14.51,159.26,0,11.01-.09,14.34,3.35,13.66,14.18-.94,14.09-.77,28.29-.34,42.38.26,9.03-3.16,12.04-12.04,11.78-18.61-.52-37.23.08-55.76-.26-8.2-.18-11.45,2.92-11.19,11.17,1.11,44.28-6.57,34.9,34.07,35.93,10.85.26,21.77.43,32.62-.08,8.37-.34,12.64,1.8,12.13,11.35-.68,15.04-.68,30.09-.26,45.13.26,9.2-3.42,11.87-12.04,11.69-18.62-.42-37.23.18-55.77-.26-8.28-.17-11.44,2.76-11.1,11.09.43,12.29.34,24.68-.26,36.97-.42,8.86,3.59,10.84,11.45,10.66,18.1-.34,36.29.26,54.39-.34,9.31-.26,13.33,2.67,12.81,12.38-.77,15.05-1.02,30.09-.94,45.14,0,7.82-2.21,11.43-10.84,11.43-54.91-.33-109.82-.33-164.72,0-10.42,0-10.42-5.67-10.42-13.06.09-47.46,0-94.92,0-142.37h1.28l.09-.09Z"/>
    <path class="st7" d="M3789.49,1728c-22.97,0-43.81.6-64.47-.27-11.7-.51-15.21,3.79-14.52,14.88.59,9.03,0,18.31-.94,27.33-1.28,11.95,1.88,17.63,15.37,16.77,17.17-1.12,34.5,0,51.66-.43,8.79-.26,12.29,2.58,11.95,11.69-.59,15.05-.59,30.09-.17,45.14.26,8.59-2.3,12.12-11.53,12.12-54.48-.34-108.88-.34-163.36,0-8.8,0-12.13-2.92-12.05-11.86.86-96.29,1.54-192.58,2.06-288.87,0-7.14,2.73-9.55,9.65-9.55,55.33.18,110.67.18,166,0,7.26,0,11.01,2.07,10.76,10.06-.42,15.99-.51,31.98-.26,47.88.18,7.91-3.24,10.32-10.67,10.24-18.62-.34-37.23.17-55.77-.26-8.37-.18-12.46,1.89-12.2,11.35,1.1,43.84-6.32,34.9,34.24,35.85,11.36.26,22.72-.6,33.99.34,3.58.26,9.57,4.65,9.73,7.39.86,19.43.42,38.95.42,60.19h.09Z"/>
    <path class="st4" d="M1606.82,663.57c0-34.73-.27-69.38,0-104.11.26-30.69,10.84-42.9,41.58-43.85,43.98-1.29,88.04-1.55,132.02-.43,32.71.86,54.82,24.16,55.59,53.99.26,9.8-2.14,13.84-12.81,13.58-28.1-.69-56.28-.43-84.46-.17-19.12.17-24.34,5.5-24.34,24.5v121.91c0,19.77,7.09,26.91,27.41,27,28.61.17,57.21.43,85.74-.17,10.25-.17,14.52,2.24,14.52,13.58,0,42.73-9.82,53.91-52.52,54.68-41.33.69-82.58.69-123.91.09-38.26-.52-59.94-23.64-59.86-62.16v-98.61h.86l.18.17Z"/>
    <path class="st2" d="M3410.24,669.07c0-46.51.26-93.11-.17-139.62-.09-10.83,2.3-15.22,14.17-15.05,53.12.6,106.14.43,159.26,0,9.9,0,14.01,2.58,13.32,13.15-.85,14.1-.85,28.29-.33,42.38.33,9.37-2.57,13.07-12.38,12.72-18.11-.69-36.3.09-54.4-.34-8.45-.26-12.04,2.15-12.21,11.43-.94,35.85-1.19,35.85,34.24,35.85,11.36,0,22.72.26,33.99-.17,7.61-.26,10.68,2.58,10.42,10.32-.42,15.99-.6,31.98-.26,47.89.17,8.17-3.67,9.97-10.85,9.89-17.68-.34-35.44.6-53.03-.34-12.38-.69-15.2,4.04-15.11,15.73.42,32.84-.69,65.68-.43,98.53,0,10.23-3.16,13.41-13.32,13.15-27.24-.6-54.49-.6-81.64,0-10.25.26-13.23-3.09-13.06-13.24.42-47.46.17-94.92.17-142.37h1.62v.09Z"/>
    <path class="st4" d="M2539.38,514.58c38.59,0,77.19.34,115.79-.26,11.02-.17,14.35,3.27,13.67,14.1-.94,14.53-.69,29.23-.34,43.85.17,7.82-2.81,10.57-10.33,10.4-14.94-.34-29.97.6-44.92-.34-11.86-.77-15.54,3.01-15.54,15.22.26,69.9-.77,139.71-.33,209.6,0,13.67-3.08,18.48-17.33,17.71-24.43-1.2-49.03-1.12-73.53,0-13.32.6-17.84-2.49-17.59-17.11,1.2-68.95,1.02-137.9,1.37-206.85.06-12.21-6.15-18.31-18.61-18.31-16.31,0-32.71-.34-49.02.17-8.89.26-12.13-2.92-11.79-11.95.69-14.62.86-29.23.34-43.85-.34-9.54,2.9-12.64,12.55-12.55,38.6.43,77.2.17,115.8.17h-.17Z"/>
    <path class="st7" d="M2263.66,1545.05c38.09,0,76.26.26,114.35-.17,9.22-.09,13.23,2.15,12.64,12.2-.77,15.05-.69,30.18-.26,45.22.26,8.51-2.99,11.18-11.1,10.93-14.94-.52-29.97.51-44.92-.34-11.44-.69-14.68,3.61-14.68,14.87.09,70.32-.77,140.65-.51,210.97,0,13.16-3.42,17.28-16.65,16.77-24.93-1.03-49.95-1.03-74.89,0-12.98.51-17.08-3.1-16.91-16.59,1.02-69.81.77-139.7,1.71-209.61.17-12.29-2.48-17.36-15.72-16.42-16.73,1.2-33.55-.18-50.37.51-9.73.34-14.18-2.06-13.49-12.89.86-14.09.86-28.29.17-42.47-.51-10.57,3.67-13.15,13.49-13.07,39.03.43,78.05.18,117.08.18l.08-.09Z"/>
    <path class="st7" d="M5631,1699.28c0-46.51.34-93.1-.26-139.62-.17-11.35,3.33-15.13,14.77-14.87,27.23.69,54.4.51,81.63,0,8.62-.18,11.96,2.32,11.96,11.6-.69,95.34-1.02,190.78-1.2,286.12,0,9.28-2.82,12.89-12.46,12.64-27.67-.52-55.33-.6-83,0-10.68.26-12.9-3.87-12.81-13.58.43-47.46.17-94.92.17-142.37h1.2v.08Z"/>
  </g>
</svg>